/* XPM */
static char *result[] = {
/* columns rows colors chars-per-pixel */
"64 64 2 1 ",
"  c #E0E0E0",
". c None",
/* pixels */
"....................                        ....................",
"....................                        ....................",
"....................                        ....................",
"....................                        ....................",
"................                                ................",
"................                                ................",
"................                                ................",
"................                                ................",
"........................                ........................",
"........................                ........................",
"........................   ...    ...   ........................",
"........................   ...    ...   ........................",
"........................                ........................",
"........................                ........................",
"........................                ........................",
"........................                ........................",
"........................                ........................",
"........................                ........................",
"........................                ........................",
"........................                ........................",
"........        ............        ............        ........",
"........        ............        ............        ........",
"........        ............        ............        ........",
"........        ............        ............        ........",
"........        ............        ............        ........",
"........        ............        ............        ........",
"........        ............        ............        ........",
"........        ............        ............        ........",
"........                                                ........",
"........                                                ........",
"........                                                ........",
"........                                                ........",
"........                                                ........",
"........             ..  ..                             ........",
"........            ........                            ........",
"........             ......                             ........",
"............          ....                          ............",
"............           ..                           ............",
"............                                        ............",
"............                                        ............",
"....................                        ....................",
"....................                        ....................",
"....................                        ....................",
"....................                        ....................",
"....................                        ....................",
"....................                        ....................",
"....................                        ....................",
"....................                        ....................",
"....................    ................    ....................",
"....................    ................    ....................",
"....................    ................    ....................",
"....................    ................    ....................",
"....................    ................    ....................",
"....................    ................    ....................",
"....................    ................    ....................",
"....................    ................    ....................",
"....................    ................    ....................",
"....................    ................    ....................",
"....................    ................    ....................",
"....................    ................    ....................",
"................................................................",
"................................................................",
"................................................................",
"................................................................"
};
