/* XPM */
static char *fb089acf5c434c44ea2bdf845454cf39OmJPU6oaiI2YcFWS[] = {
/* columns rows colors chars-per-pixel */
"64 64 222 2 ",
"   c None",
".  c red",
"X  c #FF0101",
"o  c #FF0202",
"O  c #FF0303",
"+  c #FF0404",
"@  c #FF0505",
"#  c #FF0606",
"$  c #FF0707",
"%  c #FF0808",
"&  c #FF0909",
"*  c #FF0A0A",
"=  c #FF0B0B",
"-  c #FF0C0C",
";  c #FF0D0D",
":  c #FF0E0E",
">  c #FF0F0F",
",  c #FF1010",
"<  c #FF1111",
"1  c #FF1212",
"2  c #FF1313",
"3  c #FF1414",
"4  c #FF1515",
"5  c #FF1616",
"6  c #FF1717",
"7  c #FF1818",
"8  c #FF1A1A",
"9  c #FF1B1B",
"0  c #FF1C1C",
"q  c #FF1D1D",
"w  c #FF1E1E",
"e  c #FF1F1F",
"r  c #FF2020",
"t  c #FF2121",
"y  c #FF2424",
"u  c #FF2525",
"i  c #FF2626",
"p  c #FF2727",
"a  c #FF2828",
"s  c #FF2929",
"d  c #FF2A2A",
"f  c #FF2B2B",
"g  c #FF2C2C",
"h  c #FF2D2D",
"j  c #FF2E2E",
"k  c #FF2F2F",
"l  c #FF3030",
"z  c #FF3131",
"x  c #FF3232",
"c  c #FF3333",
"v  c #FF3434",
"b  c #FF3535",
"n  c #FF3636",
"m  c #FF3737",
"M  c #FF3838",
"N  c #FF3939",
"B  c #FF3A3A",
"V  c #FF3B3B",
"C  c #FF3C3C",
"Z  c #FF3D3D",
"A  c #FF3E3E",
"S  c #FF3F3F",
"D  c #FF4040",
"F  c #FF4141",
"G  c #FF4242",
"H  c #FF4343",
"J  c #FF4444",
"K  c #FF4545",
"L  c #FF4646",
"P  c #FF4848",
"I  c #FF4949",
"U  c #FF4A4A",
"Y  c #FF4B4B",
"T  c #FF4D4D",
"R  c #FF4E4E",
"E  c #FF4F4F",
"W  c #FF5050",
"Q  c #FF5252",
"!  c #FF5353",
"~  c #FF5454",
"^  c #FF5555",
"/  c #FF5757",
"(  c #FF5858",
")  c #FF5959",
"_  c #FF5A5A",
"`  c #FF5B5B",
"'  c #FF5C5C",
"]  c #FF5D5D",
"[  c #FF5F5F",
"{  c #FF6060",
"}  c #FF6161",
"|  c #FF6262",
" . c #FF6363",
".. c #FF6464",
"X. c #FF6565",
"o. c #FF6767",
"O. c #FF6868",
"+. c #FF6969",
"@. c #FF6A6A",
"#. c #FF6B6B",
"$. c #FF6C6C",
"%. c #FF6D6D",
"&. c #FF6E6E",
"*. c #FF6F6F",
"=. c #FF7070",
"-. c #FF7171",
";. c #FF7272",
":. c #FF7474",
">. c #FF7575",
",. c #FF7676",
"<. c #FF7777",
"1. c #FF7878",
"2. c #FF7979",
"3. c #FF7A7A",
"4. c #FF7B7B",
"5. c #FF7C7C",
"6. c #FF7D7D",
"7. c #FF7E7E",
"8. c #FF8080",
"9. c #FF8181",
"0. c #FF8383",
"q. c #FF8686",
"w. c #FF8787",
"e. c #FF8888",
"r. c #FF8D8D",
"t. c #FF8F8F",
"y. c #FF9090",
"u. c #FF9191",
"i. c #FF9393",
"p. c #FF9595",
"a. c #FF9696",
"s. c #FF9898",
"d. c #FF9999",
"f. c #FF9A9A",
"g. c #FF9B9B",
"h. c #FF9C9C",
"j. c #FF9E9E",
"k. c #FF9F9F",
"l. c #FFA0A0",
"z. c #FFA1A1",
"x. c #FFA2A2",
"c. c #FFA3A3",
"v. c #FFA4A4",
"b. c #FFA5A5",
"n. c #FFA7A7",
"m. c #FFA8A8",
"M. c #FFAAAA",
"N. c #FFACAC",
"B. c #FFADAD",
"V. c #FFAFAF",
"C. c #FFB0B0",
"Z. c #FFB1B1",
"A. c #FFB2B2",
"S. c #FFB3B3",
"D. c #FFB4B4",
"F. c #FFB5B5",
"G. c #FFB6B6",
"H. c #FFB7B7",
"J. c #FFB8B8",
"K. c #FFB9B9",
"L. c #FFBABA",
"P. c #FFBBBB",
"I. c #FFBCBC",
"U. c #FFBDBD",
"Y. c #FFBEBE",
"T. c #FFBFBF",
"R. c #FFC0C0",
"E. c #FFC1C1",
"W. c #FFC2C2",
"Q. c #FFC3C3",
"!. c #FFC4C4",
"~. c #FFC6C6",
"^. c #FFC7C7",
"/. c #FFC9C9",
"(. c #FFCBCB",
"). c #FFCCCC",
"_. c #FFCDCD",
"`. c #FFCECE",
"'. c #FFCFCF",
"]. c #FFD0D0",
"[. c #FFD1D1",
"{. c #FFD2D2",
"}. c #FFD3D3",
"|. c #FFD4D4",
" X c #FFD5D5",
".X c #FFD6D6",
"XX c #FFD7D7",
"oX c #FFD8D8",
"OX c #FFD9D9",
"+X c #FFDADA",
"@X c #FFDDDD",
"#X c #FFE0E0",
"$X c #FFE1E1",
"%X c #FFE2E2",
"&X c #FFE3E3",
"*X c #FFE4E4",
"=X c #FFE5E5",
"-X c #FFE6E6",
";X c #FFE7E7",
":X c #FFE8E8",
">X c #FFE9E9",
",X c #FFEAEA",
"<X c #FFEBEB",
"1X c #FFECEC",
"2X c #FFEDED",
"3X c #FFEEEE",
"4X c #FFEFEF",
"5X c #FFF0F0",
"6X c #FFF2F2",
"7X c #FFF3F3",
"8X c #FFF4F4",
"9X c #FFF5F5",
"0X c #FFF6F6",
"qX c #FFF7F7",
"wX c #FFF8F8",
"eX c #FFF9F9",
"rX c snow",
"tX c #FFFBFB",
"yX c #FFFCFC",
"uX c #FFFDFD",
"iX c #FFFEFE",
"pX c white",
/* pixels */
"                                                                                                                                ",
"                                                                                                                                ",
"                                                                                                                                ",
"                                                                                                                                ",
"                pXpXpXpXpXpXpXpXpXpXpXpXpXpXpXpXpXpXpXpXpXpXpXpXpXpXpXpXpXpXpXpXpXpXpXpXpXpXpXpXpXpXpXpXpXpXpXpX                ",
"                pXpXpXpXpXpXpXpXpXpXpXpXpXpXpXpXpXpXpXOXG.h.0.0.0.0.f.G.OXpXpXpXpXpXpXpXpXpXpXpXpXpXpXpXpXpXpXpX                ",
"                pXpXpXpXpXpXpXpXpXpXpXpXpXpX8XV.4.K t 4 , , > > > > , , 4 t D 4.V.6XpXpXpXpXpXpXpXpXpXpXpXpXpXpX                ",
"                pXpXpXpXpXpXpXpXpXpXpXpXW.@.j q , + . . . . . . . . . . . . . , q y o.T.pXpXpXpXpXpXpXpXpXpXpXpX                ",
"        pXpXpXpXpXpXpXpXpXpXpXpXpX8Xv._ j > . . . . . + y N E E E E N y + . . . . . * d ] S.pXpXpXpXpXpXpXpXpXpXpXpXpXpX        ",
"        pXpXpXpXpXpXpXpXpXpXpXpXW.@.d . . . . > D @.e.x.S.W.`.`.`.`.W.G.x.e.@.D > . . . . j ;.T.pXpXpXpXpXpXpXpXpXpXpXpX        ",
"        pXpXpXpXpXpXpXpXpXpX,Xf.A . . . + l { t.W.,XpXpXpXpXpXpXpXpXpXpXpXpX2XW.t.{ j . . . . N f.,XpXpXpXpXpXpXpXpXpXpX        ",
"        pXpXpXpXpXpXpXpXpXXX:.> . . + d o.G.8XpXpXpXpXpXpXpXpXpXpXpXpXpXpXpXpXpXpX8XV.{ d + . . > &.].pXpXpXpXpXpXpXpXpX        ",
"        pXpXpXpXpXpXpXpX  . . . . . .                                                     . . . . . .   pXpXpXpXpXpXpXpX        ",
"        pXpXpXpXpXpXpXP.. . . . .                                                             . . . . . W.pXpXpXpXpXpXpX        ",
"        pXpXpXpXpXpXT.d . . . .                                                                 . . . . d ^.pXpXpXpXpXpX        ",
"        pXpXpXpXpXXX7 . . . .                                                                     . . . . y ].pXpXpXpXpX        ",
"        pXpXpXpX,Xj . . . . . .                                                                     . . . . l %XpXpXpXpX        ",
"        pXpXpX;X{ . . . . . . . .                                                                     . . . . @.,XpXpXpX        ",
"        pXpXwXv.+ . . _     . . . .                                                                     W . . * x.8XpXpX        ",
"        pXpX^.m . . y W.    . . . . .                                                                   T.t . . N ^.pXpX        ",
"        pX2X4.. . + f.8X      . + . . N G.pXpXpXpXpXpXpXpXpXpXpXpXpXpXpXpXpXpXpXpXpXpXpXpXpXpXpX        8Xp.. . . 4.2XpX        ",
"        pXV.d . . K 6XpX        @.* . . A P.pXpXpXpXpXpXpXpXpXpXpXpXpXpXpXpXpXpXpXpXpXpXpXpXpXpX        pX6XA . . d m.pX        ",
"        pX&.. . 4 P.wXpX        wX_ > . . m W.pXpXpXpXpXpXpXpXpXpXpXpXpXpXpXpXpXpXpXpXpXpXpXpXpX        pXwXP.4 . . &.pX        ",
"        T.N . + I pXpXpX        pXwX/ * . . j ].pXpXpXpXpXpXpXpXpXpXpXpXpXpXpXpXpXpXpXpXpXpXpXpX        pXpXpXI + . N P.        ",
"        4.> . t V.pXpXpX        pXpX8X_ . . . y ].pXpXpXpXpXpXpXpXpXpXpXpXpXpXpXpXpXpXpXpXpXpXpX        pXpXpXm.q . > :.        ",
"        K . . l pXpXpXpX        pXpXpX2Xo.. . . q ].pXpXpXpXpXpXpXpXpXpXpXpXpXpXpXpXpXpXpXpXpXpX        pXpXpXwXl . . D         ",
"        d . 4 4.pXpXpXpX        pXpXpXpX%X;.. . . d (.pXpXpXpXpXpXpXpXpXpXpXpXpXpXpXpXpXpXpXpXpX        pXpXpXpX:., . d         ",
"      . 4 . l S.pXpXpXpX        pXpXpXpXpX%X4.. . . m W.pXpXpXpXpXpXpXpXpXpXpXpXpXpXpXpXpXpXpXpX        pXpXpXpXV.j . 4 .       ",
"      . . . I ,XpXpXpXpX        pXpXpXpXpXpX%X;.. . . A T.pXpXpXpXpXpXpXpXpXpXpXpXpXpXpXpXpXpXpX        pXpXpXpX;XI . . .       ",
"      . . . o.pXpXpXpXpX        pXpXpXpXpXpXpX%Xo.. . . D T.pXpXpXpXpXpXpXpXpXpXpXpXpXpXpXpXpXpX        pXpXpXpXpX{ . . .       ",
"      . . * 7.pXpXpXpXpX        pXpXpXpXpXpXpXpX%X_ + . . D ^.pXpXpXpXpXpXpXpXpXpXpXpXpXpXpXpXpX        pXpXpXpXpX7.* . .       ",
"      . . q p.pXpXpXpXpX        pXpXpXpXpXpXpXpXpX@X/ + . . D ].pXpXpXpXpXpXpXpXpXpXpXpXpXpXpXpX        pXpXpXpXpXy.q . .       ",
"      . . j m.pXpXpXpXpX        pXpXpXpXpXpXpXpXpXpXXX/ . . . D OXpXpXpXpXpXpXpXpXpXpXpXpXpXpXpX        pXpXpXpXpXv.d . .       ",
"      . . N G.pXpXpXpXpX        pXpXpXpXpXpXpXpXpXpXpX`.W . . . I OXpXpXpXpXpXpXpXpXpXpXpXpXpXpX        pXpXpXpXpXS.m . .       ",
"      . . A P.pXpXpXpXpX        pXpXpXpXpXpXpXpXpXpXpXpX`.E . . . W XXpXpXpXpXpXpXpXpXpXpXpXpXpX        pXpXpXpXpXP.A . .       ",
"      . . A P.pXpXpXpXpX        pXpXpXpXpXpXpXpXpXpXpXpXpX].K . . . W `.pXpXpXpXpXpXpXpXpXpXpXpX        pXpXpXpXpXP.A . .       ",
"      . . N G.pXpXpXpXpX        pXpXpXpXpXpXpXpXpXpXpXpXpXpXXXI . . . W                 pXpXpXpX        pXpXpXpXpXS.m . .       ",
"      . . j v.pXpXpXpXpX        pXpXpXpXpXpXpXpXpXpXpXpXpXpXpXOXD . . . .               pXpXpXpX        pXpXpXpXpXv.j . .       ",
"      . . q p.pXpXpXpXpX        pXpXpXpXpXpXpXpXpXpXpXpXpXpXpXpX].D . . . .             pXpXpXpX        pXpXpXpXpXy.q . .       ",
"      . . * 0.pXpXpXpXpX        pXpXpXpXpXpXpXpXpXpXpXpXpXpXpXpXpX^.D . . . .           pXpXpXpX        pXpXpXpXpX4.+ . .       ",
"      . . . o.pXpXpXpXpX        pXpXpXpXpXpXpXpXpXpXpXpXpXpXpXpX      . . . . .         pXpXpXpX        pXpXpXpXpX{ . . .       ",
"      . . . I ;XpXpXpXpX        pXpXpXpXpXpXpXpXpXpXpXpXpXpXpXpX        . . . . .       pXpXpXpX        pXpXpXpX;XI . . .       ",
"      . 4 . l G.pXpXpXpX        pXpXpXpXpXpXpXpXpXpXpXpXpXpXpXpX          . . . . .     pXpXpXpX        pXpXpXpXV.j . 4 .       ",
"        d . , :.pXpXpXpX        pXpXpXpXpXpXpXpXpXpXpXpXpXpXpXpX            . . . . .   pXpXpXpX        pXpXpXpX:., . y         ",
"        D . . N pXpXpXpX        pXpXpXpXpXpXpXpXpXpXpXpXpXpXpXpXpXpXpXpX      . . . . . 2XpXpXpX        pXpXpX8XN . . A         ",
"        ;.* . q m.pXpXpX        pXpXpXpXpXpXpXpXpXpXpXpXpXpXpXpXpXpXpXpX        . . . . _ 8XpXpX        pXpXpXV.t . + @.        ",
"        G.m . + E pXpXpX        pXpXpXpXpXpXpXpXpXpXpXpXpXpXpXpXpXpXpXpX          . . . * / wXpX        pXpXpXK + . m S.        ",
"        wX@.. . 4 W.wXpX        pXpXpXpXpXpXpXpXpXpXpXpXpXpXpXpXpXpXpXpX            . . . > _ wX        pXwXP.4 . . ;.pX        ",
"        pXm.y . . K wXpX        pXpXpXpXpXpXpXpXpXpXpXpXpXpXpXpXpXpXpXpXpXpXpXpXpXpXP.A . . * @.        pX2XD . . j S.pX        ",
"        pX6X0.. . + h.8X        pXpXpXpXpXpXpXpXpXpXpXpXpXpXpXpXpXpXpXpXpXpXpXpXpXpXpXG.N . . + .       8Xf.+ . . 7.6XpX        ",
"        pXpX(.l . . y T.        pXpXpXpXpXpXpXpXpXpXpXpXpXpXpXpXpXpXpXpXpXpXpXpXpXpXpXpXG.l . . . .     T.y . . m ^.pXpX        ",
"        pXpX6Xh.> . . /         pXpXpXpXpXpXpXpXpXpXpXpXpXpXpXpXpXpXpXpXpXpXpXpXpXpXpXpXwXG.d . . .     / . . + v.wXpXpX        ",
"        pXpXpX,X@.. . . .       pXpXpXpXpXpXpXpXpXpXpXpXpXpXpXpXpXpXpXpXpXpXpXpXpXpXpXpXpXpXS.t . . . . . . . ] ;XpXpXpX        ",
"        pXpXpXpX%Xm + . . .     pXpXpXpXpXpXpXpXpXpXpXpXpXpXpXpXpXpXpXpXpXpXpXpXpXpXpXpXpXpXpXv.. . . . . . l ,XpXpXpXpX        ",
"        pXpXpXpXpX].y . . . .   pXpXpXpXpXpXpXpXpXpXpXpXpXpXpXpXpXpXpXpXpXpXpXpXpXpXpXpXpXpXpXpX  . . . . t @XpXpXpXpXpX        ",
"        pXpXpXpXpXpXT.t . . . . ].pXpXpXpXpXpXpXpXpXpXpXpXpXpXpXpXpXpXpXpXpXpXpXpXpXpXpXpXpXpXXX. . . . j ^.pXpXpXpXpXpX        ",
"        pXpXpXpXpXpXpXG.. . . . 7 x.pXpXpXpXpXpXpXpXpXpXpXpXpXpXpXpXpXpXpXpXpXpXpXpXpXpXpXpXy.7 . . . . W.pXpXpXpXpXpXpX        ",
"        pXpXpXpXpXpXpXpX  . . . . 7 _ P.pXpXpXpXpXpXpXpXpXpXpXpXpXpXpXpXpXpXpXpXpXpXpXpXT.E 4 . . . .   pXpXpXpXpXpXpXpX        ",
"        pXpXpXpXpXpXpXpX    . . . . + d o.G.wXpXpXpXpXpXpXpXpXpXpXpXpXpXpXpXpXpXpX6XS.o.d . . . . .     pXpXpXpXpXpXpXpX        ",
"        pXpXpXpXpXpXpXpX        N . . . + l o.y.T.;XpXpXpXpXpXpXpXpXpXpXpXpX,XT.t.] j + . . . D         pXpXpXpXpXpXpXpX        ",
"        pXpXpXpXpXpXpXpX        P.&.j . . . . > A { q.x.G.W.].`.`.].W.G.v.q.@.A * . . . . y { W.        pXpXpXpXpXpXpXpX        ",
"        pXpXpXpXpXpXpXpX        pXpXV._ d > . . . . . * y A W E E W m y * . . . . . * d _ x.wXpX        pXpXpXpXpXpXpXpX        ",
"        pXpXpXpXpXpXpXpX        pXpXpXpXW.&.m q , . . . . . . . . . . . . . + , q l o.T.pXpXpXpX        pXpXpXpXpXpXpXpX        ",
"        pXpXpXpXpXpXpXpX        pXpXpXpXpXpX6XG.:.A q 4 , , > > > > , , 4 t I 7.S.pXpXpXpXpXpXpX        pXpXpXpXpXpXpXpX        "
};
