/* XPM */
static char *a7d9eeefd9a448e0a31de8a746dedc86RPzJMqsgUj03O4YB[] = {
/* columns rows colors chars-per-pixel */
"64 64 36 1 ",
"  c #6B3118",
". c #904F32",
"X c #945335",
"o c #975438",
"O c #99563A",
"+ c #9D5B3E",
"@ c #9E5C40",
"# c #A15F42",
"$ c #A46245",
"% c #A76549",
"& c #A9664A",
"* c #AB684C",
"= c #AF6D50",
"- c #B16E52",
"; c #B47155",
": c #B77557",
"> c #B77358",
", c #B77558",
"< c #B87358",
"1 c #B9765A",
"2 c #BA775B",
"3 c #BA785B",
"4 c #BA795E",
"5 c #BD7A5E",
"6 c #BD7C5F",
"7 c #BD7B60",
"8 c #BE7C61",
"9 c #C07E62",
"0 c #C27F65",
"q c #C08062",
"w c #C38166",
"e c #C58166",
"r c #C58466",
"t c #C68368",
"y c #C78569",
"u c #C88468",
/* pixels */
"                                                                ",
" o@$$$$$$$$$+ O#$$$$$$$$+o @$$$$$$$+ o@$$$$$$$+O @$$$$$$$$$$$+. ",
" +=114874111& #=11111111&@ =,111111* @=1111111*# =,1111111111&o ",
" $1uyyyyyuyt- %>eyyyyyyy;$ 1eyyyyyw; $1yyyyyyw;% ;qrtertyytyy;+ ",
" $1yyyyyuuue; &,wyyyyyyy;$ 1eyyyyyq; &1eyyyyyw;& ,wyyyyyyyyyy;@ ",
" $1yyyyyyuye; &;8eeerwre-$ 1wyyyyy9; &1wyyyyy9;& ;5wwwwwwwweq;+ ",
" $1yyyyyyyy0; $*;115611;*# 1wyyyyy9; *,wyyyyy9;$ *;,,,,,,,,,;*O ",
" $3yyyyyyyyw;              1wyyyyy9; *,wyyyyy9;$                ",
" $3yyyyyyyyw> #$$&&%$%&$@@ 1wyyyyy9; *,wyyyyy9;$ #$&&&&&&&&&$@X ",
" $3yuyyyyyyt1 $*;;;;:;;-&# 1wyyyyy9; *,wyyyyy9;% *-;;;;;;;;;-%O ",
" $4yuyyyyyyy7 &;6w999994-% 1wyyyyy9; *,wyyyyy9;& ;69999999994*+ ",
" $4yuuyuyyyy7 *,wyyyyyy9;& 1wyyyyy9; *,wyyyyy9;& ,wyyyyyyyyy9;@ ",
" $4yyyyuyyyt5 *,wyyyyyy9;& 1wyyyyy9; *,wyyyyyq;% ,wyyyyyyyyy9;@ ",
" $6yyyyyyyye4 *,wyyyyyy9;& 1wyyyyyw; &;7wwwww6-$ <wyyyyyyyyy9;@ ",
" $8yyyyyyyue1 *,wyyyyyy9;& ,wyyyyyw; $*;,,,,,;*@ >wyyyyyyyyy9;@ ",
" $8yyyyyyyyw1 *,wyyyyyy9;& ,wyyyyyw> #$&*****&$O 1wyyyyyyyyy9;@ ",
" $8yyyyyyyyw1 *,wyyyyyy9;& ,wyyyyyw;             ,wyyyyyyyyy9;@ ",
" $8yyyyyyyyw, *,wyyyyyy9;& >wyyyyy9; $*-;;;;;-&@ ,wyyyyyyyyy9;@ ",
" $5yyyyyyyy0, *,wyyyyyy9;& <wyyyyy9; &-5999995-$ ,wyyyyyyyyy9;@ ",
" $4yyyyyyyy0: *,wyyyyyy9;& 1eyyyyy9; *1wyyyyyq;% ,wyyyyyyyyy9;@ ",
" $3yyyyyyyyw> *,wyyyyyy9;& 1wyyyyy9; *1wyyyyy9;& ,wyyyyyyyyy9;@ ",
" $1yyyyyyyy0; *,wyyyyyy9;& 1wyyyyy9; *1wyyyyy9;& ,wyyyyyyyyy9;@ ",
" $1yyyyyyyy0; *,wyyyyyy9;& 1wyyyyyq: *1wyyyyy9;& ,wyyyyyyyyy9;@ ",
" $1yyyyyyyy9; *,wyyyyyy9;& 1wyyyyyw: *1wyyyyy9;& ,wyyyyyyyyy9;@ ",
" $1yrewwwww5- *,wyyyyyy9;& 1wyyyyyw, *1wyyyyy9;% 1wyyyyyyyyy9;@ ",
" @=11111111-& &,wyyyyyy9;& 1wyyyyyw1 *1wyyyyy9;% ,wyyyyyyyyy9;@ ",
" O#$$%*****$# &1eyyyyyy9;& 1wyyyyye, *1wyyyyy9;% ,wyyyyyyyyy9;@ ",
"              &1wyyyyyy9;& 1wyyyyyw, *1wyyyyy9;% ,wyyyyyyyyy9;@ ",
" +*;;;;;;;;-& &1wyyyyyy9;& 1wyyyyyw; *1wyyyyy9;% ,wyyyyyyyyy0;+ ",
" $1yrw999994- *1eyyyyyy9;% 5wyyyyy9; *1wyyyyy9;% ,wyyyyyyyyy0:+ ",
" $1yyyyyyyy9; *,wyyyyyy9;% 4wyyyyyq; *1eyyyyy9;% ,wyyyyyyyyy0;+ ",
" $1yyyyyyyy9; *,wyyyyyy9:& 1wyyyyyq; &4ryyyyy0;& ,wyyyyyyyyy9;+ ",
" $1yyyyyyyy9; *,wyyyyyy9;& 1wyyyyyw; *1wyyyyy9;% ,wyyyyyyyyy9;@ ",
" $1yyyyyyyy0; *,wyyyyyy9;& 1wyyyyyw; *1eyyyyy9;% ,wyyyyyyyyy9;@ ",
" $1yyyyyyyy0; *,wyyyyyy9;& ;5wwwww6; *1wyyyyy9;% ,wyyyyyyyyy9;@ ",
" $1yyyyyyyy0; *,wyyyyyy9;% *;,,,,,;* &1wyyyyy9;& ,wyyyyyyyyy9;@ ",
" $1yyyyyyyy0; *,wyyyyyy9;$           &1wyyyyy9;% ,wyyyyyyyyy9;+ ",
" $1yyyyyyyyw; *,wyyyyyy9;$ $$%%&&&$@ &1wyyyyy9;% ,wyyyyyyyyy9;+ ",
" $1yyyyyyyy0; *,wyyyyyy9;% *;;;;;;-% &1eyyyyy9;& >wyyyyyyyyy9;@ ",
" $1yyyyyyyy0; *,wyyyyyy9;& ;5099994- *1wyyyyy9;& >wyyyyyyyyy9;+ ",
" $1yyyyyyyy0, *,wyyyyyy9;& 1eyyyyy9; *1wyyyyy9;& ,wyyyyyyyyy9;+ ",
" $1yyyyyyyy0, *,wyyyyyy9;& 1wyyyyy9; &1wyyyyy9;& ,wyyyyyyyyy9;@ ",
" $3yyyyyyyy0; *,wyyyyyy9;& 1wyyyyy9; &1wyyyyy9;& ,wyyyyyyyyy9;@ ",
" $3yyyyyyyy0; *,wyyyyyy9;& 1wyyyyy9; &1wyyyyyw:& ,wyyyyyyyyy9;@ ",
" $3yyyyyyyy9; *,wyyyyyy9;& 1wyyyyy9; &1wyyyyyw,& ,wyyyyyyyyy9;@ ",
" $3yyyyyyyy9; *,wyyyyyy9;& ,wyyyyy9; *1wyyyyye1$ ;7wwwwwwwww5-+ ",
" $3yyyyyyyy9; *,wyyyyyy9;& ,wyyyyy9; *1wyyyyye1$ *;,,,,,,>,,;&O ",
" $3yyyyyyyy9; *,wyyyyyy9;& 1wyyyyy9; &5eyyyyye,$ $&&&&&*****%#X ",
" $1yyyyyyyy9; *,wyyyyyy9;& 1wyyyyy9: &5yyyyyye,$                ",
" $1eyyyyyyy9; *,wyyyyyy9;& 1wyyyyy9; &7ryyyyyw:$ *-;;;;;;;;;-%O ",
" $1eyyyyyyy9; *,wyyyyyy9;& 1wyyyyy9; &5eyyyyy0>& -59999999994*+ ",
" $1wyyyyyyy9; &;5wwwwww5-% 1wyyyyy9; &4eyyyyy9,& 1wyyyyyyyyy9;@ ",
" $1wyyyyyyy9; $*;,,,,,,-&$ 1wyyyyy9; &4wyyyyy91$ 1wyyyyyyyyy9;@ ",
" $1eyyyyyyy9; #$&*&&&&*$#@ 1wyyyyyw> *1wyyyyy01$ 3ryyyyyyyyy9;@ ",
" $1eyyyyyyy9;              1wyyyyy0, *1wyyyyy01$ 1eyyyyyyyyy9;@ ",
" $1yyyyyyyy9; $*-;;;;;;-&$ ,wyyyyy9> *1wyyyyy9,% 1wyyyyyyyyy9;@ ",
" $3yyyyyyyy9; &-59999994-% 1wyyyyy9; *1wyyyyy9;& 1eyyyyyyyyy9;@ ",
" $3yyyyyyyy9; *,wyyyyyy9;& ,wyyyyy9; *1wyyyyy9;& 1wyyyyyyyyy9;@ ",
" $1yyyyyyyy9; *,wyyyyyy9;& ,wyyyyy9; %;5wwwww5-$ 1wyyyyyyyyy9;@ ",
" $1yyyyyyyy9; *,wyyyyyy9;& 1wyyyyy9; $*;11111;*$ ,wyyyyyyyyy9;@ ",
" $1yyrewwww6- &;8ewwwww5-$ ;6wwwww5- +$&*****%#+ ;5wweweewww5-+ ",
" @=111,,,,,;* #*;1,,,,,-&# *;,,,,,-& O++++++++OO *;,,1111,,,;&O ",
" o@$$$$$$$$$+ O+$$$$$$$#+O @$$$$$$#+ XXXXXXXXXXX +$$$$$$$$$$$+X ",
"                                                                "
};
