/* XPM */
static char *b1760f8693ba427098dd467e6c98c3903H4yKxR6cnGCPsMb[] = {
/* columns rows colors chars-per-pixel */
"64 64 26 1 ",
"  c gray22",
". c gray32",
"X c #565656",
"o c #5A5A5A",
"O c gray37",
"+ c #606060",
"@ c #656565",
"# c DimGray",
"$ c #6D6D6D",
"% c #727272",
"& c #777777",
"* c gray47",
"= c gray49",
"- c gray51",
"; c gray53",
": c #888888",
"> c gray56",
", c #909090",
"< c #9B9B9B",
"1 c gray62",
"2 c #A2A2A2",
"3 c #A7A7A7",
"4 c gray67",
"5 c gray68",
"6 c gray70",
"7 c #B4B4B4",
/* pixels */
"                                                                ",
" .O###################O. O##################O .O#############O. ",
" O&>>>>>>>,,,,,,>>>>>>&O &>>>>>>>>>>>>>>>>>>& O&>>,,>,,,>,>,,*O ",
" #>7777777777777777777># >777777766766776776> #>6666666667666># ",
" #>7777777777777777777># >777776667777777767> O&>>>>>>>>>>>>>&O ",
" #>7766777776777677777># >776667777777777776> .O###$$#$$#$$##O. ",
" #>7777777777777777777># >776777777777777776>                   ",
" #>7676777776776777777># >767777777777777767> O&>>>>>>>>>>>>>*O ",
" #>7676777767767777776># &>>>>>>>>>>>>>>>>>>& #>6666666666665># ",
" #>6777777777777777777># O##################O #>7777777777676># ",
" #>7677777777777777776>#                      #>6777777776775># ",
" #>6767777777777777767># &>>>>>>>>>>>>>>>>>>& #>6777777777665># ",
" O&>>>>>>>>>>>>>>>>>>>&O &>>>>>>><4777677777> #>6777777776765># ",
" .O###################O. O#######-<777777777> #>6766777777675># ",
"                                 #>777777777> #>7777777777775># ",
" O&>>>>>>>& O&>>>>>>>>>>>>>>>>>& #>777777777> #>6777777777775># ",
" #>7767777> #>77777767777777777> #>777777767> #>6767677777775># ",
" #>7777777> #>77777777776777777> O&>>>>>>>>>& #>6777767777775># ",
" #>7677777> #>67777777776767777> .O#########O #>6777777777775># ",
" #>7767777> #>76777767677777777>              #>6777667777775># ",
" #>7776777> #>77777776777777777> O&>>>>>>>>>& #>6777777777775># ",
" #>7777777> #>77777777776777777> #>777766666> #>6666565555553:@ ",
" #>7777777> #>77777777767677777> #>677767676> O&>>>>>>>>>>>>:&O ",
" #>6777777> #>77777777776777777> #>677776776> X+#$$$$%%%%%%%$@X ",
" #>7777777> #>77777777776777777> #>677777776>                   ",
" #>7777777> #>77777777776777777> #>677777776> +&>>>>>>>>>>>>:&O ",
" #>7777777> O&>>>>>>>>>>>>>>>>>& #>676776776> $>4555555544442:@ ",
" #>7777777> .O#################O #>677777776> $>5777777777774,# ",
" #>7777777>                      #>677777775> $>5777777777774,# ",
" #>7777777> O&>>>>>>>>>>>>>>>>>& $>577767765> %>5677767777774,# ",
" #>7777777> #>77777777776766665> $>577777775> %>5777777776774,# ",
" #>7777777> #>77777777776777775> $,577777775> %>4777777777774># ",
" #>7777777> #>77777777777677775> %:344554453: %:2444444344441;@ ",
" #>7777777> #>77777777777777774> @&:>>>>>>>:& @&:>>>>>>>>>>>:&O ",
" #>6777776> #>77777777676777774, @#%%%$$%%&%# O#%&&&&&&&&&&&%@X ",
" O&>>>>>>>& O&>>>>>><4676777775<                                ",
"                     <6666655431>;--=$ @&:>>>>>>>>>>>>>>>>>>;&O ",
" .O###############O. *>>>>>>>>>>;;--=$ $;13333333333333333331;@ ",
" O&>>>>>>>>>>>>>>>&O                   $>37777677677777767773># ",
" #>766767666676666># +#$$$%%%%&&&&&&%@ $>37677777767777777773># ",
" #>676777777777776>$ &>>>>>>>>>>>>>>;& %>37777777777777777773># ",
" #>767677777776776>$ :555544433333331; &>37677777777677677773># ",
" #>776777777667676>$ >577777777777773> &>37777777777777777773># ",
" #>677777777777776>% >577777777777773> &>37777777777777777773># ",
" #>677777677777775>% >576777777777773> &>37776777777777777673># ",
" #>677777777767775>% >467777777777773> &>37777677777777777763># ",
" #>677777777777775>% >477777777777773> &>37767777777776777673># ",
" #>677777777777774>& >477776777777773> &>36777777777777677773># ",
" #>666655655555442:% :133433333343331; %;13333333344444434331;@ ",
" O&>>>>>>>,,,,,,>:&@ &;>>>>>>>>>>>>>;& @&;>>>>>>>>>,,,,,,>>>;&O ",
" .O##$$$$$%%%%%%%%@o @%&&&&&&&&%$$%&%# +#%&&&&&&&&&&&&&&&&&&%@X ",
"                                                                ",
" O&>>>>>>>>>>>>>>:&@ &:>>>>>>>:&@ &;>>>>>>>>>>>>>>>>>>>>>>>>;&O ",
" #>776666555554442:$ :244443331;% ;13333333333333333333333331;@ ",
" #>777677777777774>& >476777673>& >37777777776777777776777773># ",
" #>777777777677764>& >467767763>& >37776777777777777766777774># ",
" #>777777777777774>% >477777773>& >37767777776776777776677773># ",
" #>777777777677774>& >477777773>& >37777777776777777777677773># ",
" #>777777777777774>& >477777773>& >37777777777777767777777674># ",
" #>777777777777774>& >477777773>& >36777777777777776777777773,# ",
" #>666766665554542:% :133333331;% ;13333333333333333333333331;@ ",
" O&>>>>>>>>>>>>>>:&@ &;>>>>>>>;&@ &;>>>>>>>>>>>>>>>>>>>>>>>>;&O ",
" .O##############@OX O@#######@OX O@########################@O. ",
"                                                                "
};
